HIERARCHY
ROOT Hips
{
	OFFSET 0.000000 0.000000 0.000000
	CHANNELS 6 Xposition Yposition Zposition Zrotation Yrotation Xrotation 
	JOINT LHipJoint
	{
		OFFSET 0.000000 0.000000 0.000000
		CHANNELS 3 Zrotation Yrotation Xrotation
		JOINT LeftUpLeg
		{
			OFFSET 1.363060 -1.794630 0.839290
			CHANNELS 3 Zrotation Yrotation Xrotation
			JOINT LeftLeg
			{
				OFFSET 2.448110 -6.726130 0.000000
				CHANNELS 3 Zrotation Yrotation Xrotation
				JOINT LeftFoot
				{
					OFFSET 2.562200 -7.039590 0.000000
					CHANNELS 3 Zrotation Yrotation Xrotation
					JOINT LeftToeBase
					{
						OFFSET 0.157640 -0.433110 2.322550
						CHANNELS 3 Zrotation Yrotation Xrotation
						End Site
						{
							OFFSET 0.000000 0.000000 0.000000
						}
					}
				}
			}
		}
	}
	JOINT RHipJoint
	{
		OFFSET 0.000000 0.000000 0.000000
		CHANNELS 3 Zrotation Yrotation Xrotation
		JOINT RightUpLeg
		{
			OFFSET -1.305520 -1.794630 0.839290
			CHANNELS 3 Zrotation Yrotation Xrotation
			JOINT RightLeg
			{
				OFFSET -2.542530 -6.985550 0.000000
				CHANNELS 3 Zrotation Yrotation Xrotation
				JOINT RightFoot
				{
					OFFSET -2.568260 -7.056230 0.000000
					CHANNELS 3 Zrotation Yrotation Xrotation
					JOINT RightToeBase
					{
						OFFSET -0.164730 -0.452590 2.363150
						CHANNELS 3 Zrotation Yrotation Xrotation
						End Site
						{
							OFFSET 0.000000 0.000000 0.000000
						}
					}
				}
			}
		}
	}
}
MOTION
Frames: 19
Frame Time: 0.008333
6.830186 16.322916 1.139330 48.099590 82.058742 64.096561 -11.244681 2.290653 0.581158 1.030003 1.219209 -28.465605 2.555488 3.592271 82.387924 3.031922 17.190890 15.410258 5.674500 -0.000001 -43.126000 9.201076 -2.151004 0.646618 21.956928 -3.751372 -26.432493 3.144409 -1.230455 33.236364 -3.840908 -6.560419 -34.205256 -175.796500 0.000000 -17.351900
7.016349 16.395125 1.249606 50.295892 81.839305 66.744633 -10.968730 2.106763 0.789935 0.161532 -0.263977 -30.098354 2.520288 3.488046 81.812828 2.910156 16.351844 14.563090 5.183200 0.000000 -43.491300 9.448464 -2.007590 0.728390 21.326829 -3.231745 -25.007668 3.049362 -0.966828 31.075929 -3.847833 -7.081193 -33.210023 -175.798800 0.000000 -16.673500
7.203974 16.475739 1.360799 51.829359 81.488205 68.700534 -10.713605 1.949707 1.044930 -0.727319 -1.729042 -31.643751 2.459108 3.380214 80.934747 2.772449 15.441183 13.617035 4.671900 -0.000000 -43.731700 9.680282 -1.886327 0.856342 20.637455 -2.688712 -23.619331 2.920919 -0.719442 28.970582 -3.810347 -7.549449 -31.867189 -175.905700 0.000000 -15.367300
7.393004 16.564494 1.471738 52.663398 81.036930 69.934464 -10.483079 1.807011 1.321097 -1.601686 -3.151279 -33.083308 2.371663 3.272379 79.749302 2.623951 14.492217 12.623307 4.169400 0.000000 -43.820100 9.891008 -1.797932 0.993699 19.918833 -2.190466 -22.272021 2.773711 -0.500153 26.940645 -3.713946 -7.903563 -30.143719 -176.146200 0.000000 -13.350500
7.583376 16.660961 1.581807 52.827163 80.523986 70.482086 -10.268492 1.669359 1.590903 -2.435029 -4.504978 -34.394981 2.258227 3.162808 78.243704 2.472591 13.550085 11.671681 3.710500 -0.000000 -44.093600 10.087173 -1.746451 1.105063 19.197270 -1.798257 -20.959758 2.622784 -0.317044 24.985624 -3.546742 -8.088670 -28.015482 -176.535700 0.000000 -10.566599
7.774955 16.764343 1.690707 52.389778 79.971255 70.395605 -10.064900 1.537183 1.837934 -3.218858 -5.750722 -35.552547 2.120361 3.050658 76.417068 2.322025 12.639218 10.783225 3.303900 0.000000 -44.205300 10.274044 -1.735112 1.172897 18.487062 -1.561445 -19.662479 2.479004 -0.174468 23.095337 -3.302560 -8.065231 -25.470968 -177.069301 0.000000 -6.988400
7.967587 16.873477 1.798632 51.444962 79.382668 69.744186 -9.870663 1.415136 2.056016 -3.962430 -6.853297 -36.525926 1.959468 2.933758 74.260546 2.177884 11.791859 10.020868 2.964700 0.000000 -44.301000 10.455330 -1.764996 1.191674 17.787705 -1.513334 -18.359349 2.348607 -0.074387 21.260353 -2.982413 -7.810038 -22.516669 -177.718600 -0.000000 -2.639600
8.161197 16.986724 1.905954 50.088634 78.752838 68.604116 -9.685103 1.309579 2.240504 -4.686350 -7.777893 -37.292286 1.777515 2.811397 71.773846 2.042846 11.024813 9.414301 2.694800 -0.000000 -44.302800 10.634764 -1.834118 1.162787 17.090469 -1.664076 -17.038447 2.233778 -0.017493 19.479685 -2.596176 -7.318937 -19.181513 1.566600 0.000000 -2.394300
8.355650 17.102131 2.013162 48.414401 78.074731 67.059445 -9.506557 1.226058 2.387778 -5.413667 -8.497168 -37.838572 1.576878 2.682944 68.959121 1.918732 10.348783 8.999335 2.494600 -0.000000 -44.377200 10.816577 -1.936971 1.091375 16.383270 -2.001813 -15.702841 2.134117 -0.003575 17.770349 -2.162477 -6.600571 -15.529991 0.854800 -0.000000 -7.879000
8.550938 17.217510 2.120751 46.505957 77.343382 65.196864 -9.332293 1.168846 2.493773 -6.164274 -8.989281 -38.164965 1.359727 2.548758 65.828125 1.804379 9.758285 8.786550 2.357000 0.000000 -44.570601 11.005227 -2.065704 0.985126 15.656580 -2.494861 -14.371663 2.047121 -0.031606 16.168125 -1.705963 -5.672496 -11.649930 0.220299 0.000000 -13.534700
8.747084 17.330628 2.228927 44.431672 76.562056 63.100679 -9.158546 1.139380 2.552232 -6.949199 -9.238108 -38.287808 1.126995 2.410382 62.407308 1.695070 9.228155 8.747485 2.265800 0.000000 -44.722201 11.204897 -2.210748 0.850222 14.909092 -3.101350 -13.079831 1.969722 -0.099769 14.729106 -1.253789 -4.554693 -7.650439 -0.266900 -0.000000 -19.041000
8.944161 17.439425 2.337738 42.243267 75.739076 60.854102 -8.980987 1.135061 2.554573 -7.768147 -9.241050 -38.234849 0.878773 2.268529 58.720778 1.586441 8.732468 8.881393 2.210300 0.000000 -45.039100 11.419107 -2.360841 0.686996 14.147560 -3.776939 -11.874485 1.897851 -0.205316 13.519391 -0.831307 -3.270286 -3.632992 -0.553500 0.000000 -24.229200
9.142270 17.542091 2.446850 39.975318 74.860792 58.512982 -8.810958 1.156066 2.502895 -8.618490 -8.995417 -38.041289 0.610071 2.128575 54.807008 1.470977 8.225157 9.140594 2.168500 0.000000 -45.376200 11.633921 -2.507696 0.500143 13.379337 -4.482549 -10.797027 1.825976 -0.342191 12.606705 -0.459243 -1.846631 0.315324 -0.607401 -0.000000 -29.075900
9.341537 17.637261 2.555848 37.700384 73.851255 56.078788 -8.698154 1.221331 2.467696 -9.505784 -8.501240 -37.710703 0.310231 1.999748 50.686161 1.344323 7.670788 9.524551 2.125800 0.000000 -45.942799 11.794511 -2.661214 0.345871 12.591459 -5.195533 -9.847819 1.744455 -0.498938 12.058100 -0.150555 -0.317414 4.121369 -0.420700 0.000000 -33.639199
9.542065 17.723899 2.664093 35.490175 72.734112 53.577792 -8.649959 1.337292 2.489863 -10.409095 -7.764322 -37.257461 -0.023473 1.876579 46.401212 1.200263 7.018777 9.999451 2.058500 0.000001 -46.628100 11.892706 -2.828614 0.265107 11.801569 -5.898094 -9.031144 1.650039 -0.667747 11.915855 0.087367 1.264765 7.727987 -0.010201 0.000000 -38.027800
9.743934 17.801318 2.770978 33.328696 71.616062 51.099170 -8.622097 1.475521 2.505745 -11.286950 -6.812229 -36.743066 -0.386490 1.744125 41.997713 1.033111 6.223455 10.566802 1.947400 0.000000 -47.522400 11.974881 -2.989084 0.207788 11.060036 -6.565907 -8.398962 1.545272 -0.845841 12.196228 0.249981 2.828566 11.083369 0.583999 -0.000000 -42.321201
9.947155 17.868973 2.875945 31.205526 70.515602 48.674307 -8.609731 1.618023 2.492721 -12.125039 -5.662824 -36.203466 -0.781787 1.598895 37.517926 0.838973 5.244263 11.237766 1.772400 0.000000 -48.641599 12.044794 -3.131620 0.151870 10.383928 -7.187564 -7.964588 1.427019 -1.028403 12.911439 0.339590 4.296797 14.139865 1.300300 -0.000001 -46.527500
10.151675 17.926433 2.978437 29.126233 69.426653 46.303032 -8.621999 1.755461 2.453873 -12.919943 -4.322852 -35.656539 -1.210112 1.438824 33.008360 0.617201 4.047697 12.030728 1.511500 0.000001 -49.936300 12.092339 -3.254188 0.098874 9.776376 -7.755790 -7.711480 1.292905 -1.210100 14.063301 0.364225 5.587121 16.854036 2.059700 -0.000000 -50.582000
10.357439 17.973239 3.078053 27.093881 68.345435 43.978810 -8.665154 1.879007 2.390120 -13.671532 -2.796476 -35.117392 -1.665111 1.261499 28.518747 0.372127 2.617612 12.988863 1.145001 -0.000000 -51.528000 12.111459 -3.356433 0.051105 9.237568 -8.260090 -7.612023 1.142528 -1.387121 15.640211 0.334638 6.614952 19.188343 2.773000 -0.000000 -54.365600
